<svg xmlns="http://www.w3.org/2000/svg" width="17" height="12" viewBox="0 0 17 12" fill="none">
  <path d="M13.9771 1.00498C12.909 0.535494 11.7669 0.194272 10.573 0C10.4263 0.249066 10.255 0.584059 10.1369 0.850559C8.86771 0.671234 7.61014 0.671234 6.36429 0.850559C6.24621 0.584059 6.07097 0.249066 5.92307 0C4.7278 0.194272 3.58445 0.536739 2.51638 1.00747C0.362068 4.06601 -0.221933 7.0486 0.0700677 9.9888C1.49892 10.9913 2.88365 11.6002 4.24502 11.9987C4.58115 11.5641 4.88093 11.1021 5.1392 10.6152C4.64734 10.4396 4.17624 10.2229 3.7311 9.97135C3.8492 9.8892 3.9647 9.80325 4.07631 9.71485C6.79129 10.9078 9.74111 10.9078 12.4237 9.71485C12.5365 9.80325 12.652 9.8892 12.7688 9.97135C12.3224 10.2241 11.85 10.4408 11.3581 10.6164C11.6164 11.1021 11.9149 11.5654 12.2523 12C13.615 11.6015 15.001 10.9925 16.4299 9.9888C16.7725 6.58035 15.8446 3.62516 13.9771 1.00498ZM5.50906 8.1806C4.69406 8.1806 4.0257 7.46575 4.0257 6.59529C4.0257 5.72479 4.67978 5.00874 5.50906 5.00874C6.33835 5.00874 7.00668 5.72354 6.99241 6.59529C6.99374 7.46575 6.33835 8.1806 5.50906 8.1806ZM10.9909 8.1806C10.1759 8.1806 9.5075 7.46575 9.5075 6.59529C9.5075 5.72479 10.1616 5.00874 10.9909 5.00874C11.8201 5.00874 12.4885 5.72354 12.4743 6.59529C12.4743 7.46575 11.8201 8.1806 10.9909 8.1806Z" fill="#4C4854"/>
</svg>