<svg xmlns="http://www.w3.org/2000/svg" width="15" height="12" viewBox="0 0 15 12" fill="none">
  <path d="M4.58543 12C2.8976 12 1.32426 11.5091 0 10.6621C1.12434 10.7348 3.10856 10.5606 4.34274 9.38337C2.48613 9.29817 1.64883 7.87424 1.53962 7.26572C1.69737 7.32657 2.44972 7.39959 2.87444 7.22921C0.73873 6.69371 0.411093 4.81947 0.483901 4.24746C0.884346 4.52738 1.56389 4.62475 1.83085 4.60041C-0.159238 3.17647 0.556709 1.03448 0.908616 0.572008C2.33678 2.55061 4.47715 3.66186 7.12507 3.72367C7.07514 3.50471 7.04878 3.27674 7.04878 3.0426C7.04878 1.36222 8.407 0 10.0825 0C10.9578 0 11.7466 0.371872 12.3004 0.966698C12.8853 0.82962 13.7657 0.508731 14.1961 0.231237C13.9792 1.01014 13.3038 1.65991 12.8953 1.90074C12.8919 1.89251 12.8986 1.90893 12.8953 1.90074C13.2541 1.84645 14.2251 1.65984 14.6087 1.39959C14.419 1.83717 13.703 2.56473 13.1153 2.97205C13.2247 7.79377 9.53555 12 4.58543 12Z" fill="#4C4854"/>
</svg>